<svg width="540" height="424" viewBox="0 0 540 424" fill="none" xmlns="http://www.w3.org/2000/svg">
<g filter="url(#filter0_d_210_2465)">
<rect x="42.9192" y="26" width="454.081" height="338" rx="17.0707" fill="white" shape-rendering="crispEdges"/>
<g filter="url(#filter1_d_210_2465)">
<g filter="url(#filter2_d_210_2465)">
<rect x="115.83" y="73.3712" width="40.9697" height="40.9697" rx="8.53535" fill="#FEFEFE"/>
</g>
<path fill-rule="evenodd" clip-rule="evenodd" d="M142.484 91.4762C142.76 89.6271 141.352 88.633 139.427 87.9699L140.052 85.465L138.527 85.085L137.919 87.5239C137.518 87.424 137.106 87.3298 136.697 87.2364L137.31 84.7815L135.786 84.4015L135.161 86.9055C134.829 86.8299 134.503 86.7552 134.187 86.6766L134.189 86.6688L132.086 86.1438L131.681 87.7723C131.681 87.7723 132.812 88.0315 132.788 88.0476C133.406 88.2018 133.518 88.6104 133.499 88.9344L132.787 91.788C132.83 91.7988 132.885 91.8145 132.946 91.8388L132.785 91.7988L131.788 95.7963C131.712 95.9839 131.52 96.2653 131.089 96.1585C131.104 96.1806 129.981 95.8818 129.981 95.8818L129.224 97.6276L131.208 98.1222C131.432 98.1784 131.654 98.2361 131.873 98.2932L131.873 98.2933C132.015 98.3303 132.155 98.367 132.295 98.4028L131.664 100.937L133.187 101.317L133.812 98.8101C134.228 98.923 134.632 99.0273 135.027 99.1254L134.404 101.62L135.929 102L136.56 99.4715C139.16 99.9635 141.115 99.7651 141.937 97.4139C142.6 95.5205 141.905 94.4283 140.537 93.7157C141.533 93.4851 142.283 92.8298 142.484 91.4762H142.484ZM139 96.3613C138.567 98.0991 135.846 97.38 134.603 97.0513L134.603 97.0513C134.491 97.0219 134.392 96.9956 134.307 96.9745L135.144 93.618C135.248 93.6439 135.375 93.6724 135.519 93.7047C136.805 93.9934 139.442 94.5851 139 96.3613H139ZM135.777 92.1471C136.815 92.424 139.077 93.0275 139.471 91.4488C139.874 89.8338 137.674 89.347 136.6 89.1093C136.479 89.0826 136.373 89.059 136.286 89.0373L135.527 92.0816C135.598 92.0995 135.683 92.1219 135.777 92.1471Z" fill="#F7931A" fill-opacity="0.7"/>
<path d="M191.949 84.6333C191.949 85.5935 191.589 86.3362 190.869 86.8613C190.149 87.3864 189.149 87.649 187.868 87.649H182.58V77.079H187.418C188.708 77.079 189.684 77.3041 190.344 77.7542C191.009 78.1993 191.342 78.8594 191.342 79.7346C191.342 80.3348 191.174 80.8424 190.839 81.2575C190.509 81.6676 190.004 81.9452 189.324 82.0902C190.179 82.1902 190.829 82.4603 191.274 82.9004C191.724 83.3355 191.949 83.9131 191.949 84.6333ZM189.114 80.0347C189.114 79.5596 188.961 79.222 188.656 79.022C188.356 78.8219 187.908 78.7219 187.313 78.7219H184.793V81.34H187.328C187.953 81.34 188.406 81.2325 188.686 81.0174C188.971 80.7974 189.114 80.4698 189.114 80.0347ZM189.729 84.4607C189.729 83.4705 189.019 82.9754 187.598 82.9754H184.793V86.0061H187.681C188.391 86.0061 188.908 85.8786 189.234 85.6235C189.564 85.3635 189.729 84.9759 189.729 84.4607ZM195.835 76.5164V78.0692H193.727V76.5164H195.835ZM195.835 79.5321V87.649H193.727V79.5321H195.835ZM201.859 87.529C201.349 87.699 200.756 87.784 200.081 87.784C199.461 87.784 198.983 87.6165 198.648 87.2814C198.313 86.9413 198.146 86.4287 198.146 85.7436V80.9574H197.118V79.5321H198.251L198.911 77.6266H200.231V79.5321H201.769V80.9574H200.231V85.1734C200.231 85.5685 200.306 85.8611 200.456 86.0511C200.606 86.2362 200.839 86.3287 201.154 86.3287C201.304 86.3287 201.539 86.2937 201.859 86.2237V87.529ZM206.503 87.799C205.272 87.799 204.322 87.434 203.652 86.7038C202.982 85.9686 202.647 84.9459 202.647 83.6356C202.647 82.2952 202.984 81.2525 203.659 80.5073C204.335 79.7571 205.292 79.382 206.533 79.382C207.488 79.382 208.278 79.6221 208.903 80.1022C209.528 80.5823 209.921 81.245 210.081 82.0902L207.958 82.1952C207.898 81.7801 207.748 81.45 207.508 81.205C207.268 80.9549 206.928 80.8299 206.488 80.8299C205.943 80.8299 205.535 81.0574 205.265 81.5125C204.995 81.9627 204.86 82.6428 204.86 83.553C204.86 84.4883 204.997 85.1909 205.272 85.661C205.552 86.1261 205.968 86.3587 206.518 86.3587C206.918 86.3587 207.253 86.2337 207.523 85.9836C207.793 85.7285 207.961 85.351 208.026 84.8508L210.141 84.9484C210.066 85.5185 209.863 86.0186 209.533 86.4487C209.208 86.8738 208.786 87.2064 208.266 87.4465C207.745 87.6815 207.158 87.799 206.503 87.799ZM219.383 83.583C219.383 84.8984 219.018 85.9311 218.288 86.6813C217.558 87.4264 216.548 87.799 215.257 87.799C213.992 87.799 212.999 87.4239 212.279 86.6738C211.559 85.9236 211.199 84.8933 211.199 83.583C211.199 82.2777 211.559 81.2525 212.279 80.5073C212.999 79.7571 214.007 79.382 215.302 79.382C216.628 79.382 217.638 79.7446 218.333 80.4698C219.033 81.19 219.383 82.2277 219.383 83.583ZM217.178 83.583C217.178 82.6178 217.02 81.9176 216.705 81.4825C216.39 81.0474 215.932 80.8299 215.332 80.8299C214.692 80.8299 214.212 81.0599 213.892 81.5201C213.572 81.9752 213.412 82.6628 213.412 83.583C213.412 84.4883 213.567 85.1784 213.877 85.6535C214.192 86.1236 214.645 86.3587 215.235 86.3587C215.885 86.3587 216.37 86.1286 216.69 85.6685C217.015 85.2034 217.178 84.5083 217.178 83.583ZM223.172 76.5164V78.0692H221.064V76.5164H223.172ZM223.172 79.5321V87.649H221.064V79.5321H223.172ZM227.448 83.298V87.649H225.34V81.3475C225.34 80.9124 225.332 80.5573 225.317 80.2823C225.307 80.0022 225.295 79.7521 225.28 79.5321H227.29C227.3 79.5921 227.313 79.7346 227.328 79.9597C227.343 80.1797 227.355 80.4073 227.365 80.6423C227.38 80.8724 227.388 81.0399 227.388 81.145H227.418C227.703 80.5248 228.06 80.0747 228.49 79.7946C228.92 79.5146 229.433 79.3745 230.028 79.3745C230.888 79.3745 231.549 79.6396 232.009 80.1697C232.469 80.6999 232.699 81.475 232.699 82.4953V87.649H230.598V83.0954C230.598 82.3803 230.478 81.8451 230.238 81.49C229.998 81.135 229.636 80.9574 229.151 80.9574C228.64 80.9574 228.228 81.1775 227.913 81.6176C227.603 82.0527 227.448 82.6128 227.448 83.298Z" fill="#111111"/>
<path d="M189.94 109.416C189.94 110.252 189.636 110.903 189.027 111.37C188.418 111.832 187.571 112.063 186.486 112.063H182.672V102.668H186.086C187.189 102.668 188.016 102.859 188.567 103.241C189.118 103.619 189.394 104.188 189.394 104.948C189.394 105.504 189.238 105.971 188.927 106.348C188.616 106.726 188.176 106.98 187.607 107.109C188.353 107.198 188.929 107.449 189.334 107.862C189.738 108.271 189.94 108.789 189.94 109.416ZM188.113 105.101C188.113 104.595 187.94 104.232 187.593 104.015C187.246 103.797 186.744 103.688 186.086 103.688H183.946V106.662H186.086C186.766 106.662 187.273 106.535 187.607 106.282C187.944 106.024 188.113 105.631 188.113 105.101ZM188.653 109.316C188.653 108.209 187.875 107.655 186.32 107.655H183.946V111.043H186.42C187.198 111.043 187.764 110.898 188.12 110.609C188.476 110.321 188.653 109.889 188.653 109.316ZM195.462 103.708V112.063H194.195V103.708H190.967V102.668H198.689V103.708H195.462ZM204.344 111.15C205.66 111.15 206.649 110.498 207.311 109.196L208.351 109.716C207.965 110.525 207.42 111.141 206.718 111.563C206.02 111.985 205.208 112.197 204.284 112.197C203.332 112.197 202.514 111.999 201.83 111.603C201.145 111.207 200.618 110.645 200.25 109.916C199.885 109.182 199.703 108.318 199.703 107.322C199.703 106.322 199.885 105.464 200.25 104.748C200.614 104.032 201.139 103.483 201.823 103.101C202.508 102.719 203.326 102.528 204.277 102.528C205.277 102.528 206.113 102.723 206.784 103.114C207.456 103.506 207.949 104.086 208.265 104.855L207.058 105.255C206.84 104.708 206.489 104.29 206.004 104.001C205.524 103.712 204.953 103.568 204.29 103.568C203.25 103.568 202.441 103.903 201.863 104.575C201.285 105.242 200.996 106.157 200.996 107.322C200.996 108.087 201.132 108.758 201.403 109.336C201.679 109.909 202.066 110.356 202.563 110.676C203.066 110.992 203.659 111.15 204.344 111.15Z" fill="#111111"/>
<path d="M395.918 85.441C395.918 82.933 393.961 81.546 391.947 81.603L391.928 81.565L395.367 77.917C395.443 77.822 395.5 77.708 395.5 77.575V76.473C395.5 76.283 395.405 76.188 395.234 76.188H387.482C387.311 76.188 387.216 76.283 387.216 76.473V77.955C387.216 78.145 387.311 78.24 387.482 78.24H392.631C392.27 78.525 391.377 79.456 391.016 79.836L389.154 81.869C389.04 82.002 389.021 82.135 389.078 82.268L389.439 83.047C389.515 83.18 389.629 83.256 389.781 83.218C390.218 83.123 390.693 83.085 390.978 83.085C392.707 83.085 393.657 83.864 393.657 85.384C393.657 87.037 392.631 87.911 391.187 87.911C389.648 87.911 388.812 87.398 387.881 86.733C387.748 86.619 387.596 86.619 387.482 86.733L386.551 87.816C386.437 87.949 386.437 88.082 386.551 88.215C387.71 89.222 389.059 90.001 391.187 90.001C393.904 90.001 395.918 88.272 395.918 85.441ZM400.351 89.773C400.503 89.773 400.617 89.716 400.674 89.564L406.241 77.822C406.298 77.708 406.336 77.613 406.336 77.48V76.473C406.336 76.283 406.222 76.188 406.051 76.188H397.349C397.159 76.188 397.064 76.283 397.064 76.473V78.05C397.064 78.24 397.159 78.335 397.349 78.335H403.486L398.223 89.431C398.128 89.621 398.223 89.773 398.413 89.773H400.351ZM412.457 80.71V78.563C412.457 76.815 411.184 76.093 409.873 76.093C408.581 76.093 407.308 76.815 407.308 78.563V80.71C407.308 82.439 408.619 83.199 409.873 83.199C411.165 83.199 412.457 82.439 412.457 80.71ZM410.215 89.773C410.367 89.773 410.481 89.735 410.557 89.602L418.917 76.644C419.05 76.473 418.955 76.302 418.746 76.302H417.359C417.226 76.302 417.112 76.34 417.017 76.492L408.657 89.431C408.543 89.621 408.619 89.773 408.847 89.773H410.215ZM408.904 80.596V78.715C408.904 77.841 409.417 77.556 409.873 77.556C410.348 77.556 410.861 77.841 410.861 78.715V80.596C410.861 81.451 410.348 81.736 409.873 81.736C409.417 81.736 408.904 81.451 408.904 80.596ZM420.361 87.455V85.308C420.361 83.579 419.107 82.838 417.796 82.838C416.504 82.838 415.231 83.579 415.231 85.308V87.455C415.231 89.184 416.523 89.944 417.796 89.944C419.069 89.944 420.361 89.184 420.361 87.455ZM416.808 87.341V85.46C416.808 84.605 417.321 84.32 417.796 84.32C418.252 84.32 418.784 84.605 418.784 85.46V87.341C418.784 88.196 418.252 88.481 417.796 88.481C417.321 88.481 416.808 88.196 416.808 87.341Z" fill="#111111"/>
<path d="M387.893 108.22V105.66C387.893 105.516 387.813 105.436 387.653 105.436H386.357C386.213 105.436 386.133 105.516 386.133 105.66V108.22H383.589C383.445 108.22 383.365 108.3 383.365 108.444V109.708C383.365 109.868 383.445 109.948 383.589 109.948H386.133V112.508C386.133 112.652 386.213 112.732 386.357 112.732H387.653C387.813 112.732 387.893 112.652 387.893 112.508V109.948H390.437C390.581 109.948 390.661 109.868 390.661 109.708V108.444C390.661 108.3 390.581 108.22 390.437 108.22H387.893ZM399.647 114.428C399.807 114.428 399.887 114.348 399.887 114.188V112.94C399.887 112.78 399.807 112.7 399.647 112.7H395.103C396.127 111.74 396.975 110.844 397.487 110.252C398.847 108.716 399.711 107.548 399.711 106.044C399.711 103.9 398.143 102.796 396.127 102.796C394.367 102.796 393.247 103.676 392.511 104.476C392.415 104.588 392.415 104.7 392.495 104.796L393.247 105.82C393.343 105.948 393.471 105.948 393.567 105.836C394.175 105.212 394.959 104.556 396.127 104.556C397.343 104.556 397.807 105.308 397.807 106.076C397.807 107.196 396.831 108.284 395.599 109.564L392.351 112.94C392.271 113.02 392.239 113.1 392.239 113.228V114.188C392.239 114.348 392.319 114.428 392.463 114.428H399.647ZM403.56 113.34C403.56 112.636 403.064 112.156 402.376 112.156C401.672 112.156 401.208 112.636 401.208 113.34C401.208 114.012 401.672 114.508 402.376 114.508C403.064 114.508 403.56 114.012 403.56 113.34ZM412.78 110.636C412.78 108.252 411.324 106.908 409.052 106.908C408.236 106.908 407.628 107.084 407.1 107.404L407.18 104.748H411.916C412.076 104.748 412.156 104.668 412.156 104.508V103.228C412.156 103.068 412.076 102.988 411.916 102.988H405.612C405.468 102.988 405.372 103.068 405.372 103.228L405.164 108.748C405.164 108.908 405.244 108.988 405.372 109.02L406.46 109.388C406.588 109.436 406.668 109.404 406.78 109.308C407.276 108.876 407.868 108.62 408.828 108.62C410.236 108.62 410.892 109.276 410.892 110.636C410.892 111.98 410.172 112.828 408.812 112.828C407.852 112.828 407.02 112.492 406.204 111.852C406.076 111.74 405.964 111.724 405.868 111.836L404.988 112.796C404.892 112.924 404.892 113.02 404.988 113.132C406.028 114.092 407.308 114.62 408.796 114.62C411.26 114.62 412.78 113.036 412.78 110.636ZM418.269 106.796V104.988C418.269 103.516 417.197 102.908 416.093 102.908C415.005 102.908 413.933 103.516 413.933 104.988V106.796C413.933 108.252 415.037 108.892 416.093 108.892C417.181 108.892 418.269 108.252 418.269 106.796ZM416.381 114.428C416.509 114.428 416.605 114.396 416.669 114.284L423.709 103.372C423.821 103.228 423.741 103.084 423.565 103.084H422.397C422.285 103.084 422.189 103.116 422.109 103.244L415.069 114.14C414.973 114.3 415.037 114.428 415.229 114.428H416.381ZM415.277 106.7V105.116C415.277 104.38 415.709 104.14 416.093 104.14C416.493 104.14 416.925 104.38 416.925 105.116V106.7C416.925 107.42 416.493 107.66 416.093 107.66C415.709 107.66 415.277 107.42 415.277 106.7ZM424.925 112.476V110.668C424.925 109.212 423.869 108.588 422.765 108.588C421.677 108.588 420.605 109.212 420.605 110.668V112.476C420.605 113.932 421.693 114.572 422.765 114.572C423.837 114.572 424.925 113.932 424.925 112.476ZM421.933 112.38V110.796C421.933 110.076 422.365 109.836 422.765 109.836C423.149 109.836 423.597 110.076 423.597 110.796V112.38C423.597 113.1 423.149 113.34 422.765 113.34C422.365 113.34 421.933 113.1 421.933 112.38Z" fill="#5CD124"/>
</g>
<g filter="url(#filter3_d_210_2465)">
<g filter="url(#filter4_d_210_2465)">
<rect x="116.5" y="140.8" width="40.9697" height="40.9697" rx="8.53535" fill="#FEFEFE"/>
</g>
<path d="M135.642 160.577V157.088H130.91V154.03H144.133V157.132H139.401V160.577H135.642Z" fill="#00A478"/>
<path fill-rule="evenodd" clip-rule="evenodd" d="M128.876 160.965C128.876 159.802 132.679 158.854 137.411 158.854C142.143 158.854 145.947 159.802 145.947 160.965C145.947 162.128 142.143 163.076 137.411 163.076C132.679 163.076 128.876 162.128 128.876 160.965ZM145.239 160.965C144.929 160.534 142.364 159.199 137.411 159.199C132.458 159.199 129.893 160.491 129.584 160.965C129.893 161.396 132.458 162.042 137.411 162.042C142.409 162.042 144.929 161.396 145.239 160.965Z" fill="#00A478"/>
<path d="M139.401 161.654V159.242C138.782 159.199 138.119 159.156 137.456 159.156C136.836 159.156 136.261 159.156 135.687 159.199V161.611C136.217 161.611 136.836 161.654 137.456 161.654C138.119 161.697 138.782 161.697 139.401 161.654Z" fill="#00A478"/>
<path d="M137.411 163.076C136.792 163.076 136.217 163.076 135.642 163.033V169.45H139.357V162.989C138.738 163.033 138.075 163.076 137.411 163.076Z" fill="#00A478"/>
<path d="M188.021 146.219V155.078H185.808V146.219H182.394V144.508H191.442V146.219H188.021ZM193.287 151.425C193.287 152.215 193.432 152.813 193.722 153.218C194.017 153.618 194.435 153.818 194.975 153.818C195.345 153.818 195.648 153.738 195.883 153.578C196.123 153.413 196.29 153.17 196.385 152.85L198.373 153.023C197.798 154.493 196.63 155.228 194.87 155.228C193.65 155.228 192.712 154.868 192.057 154.148C191.402 153.423 191.074 152.368 191.074 150.982C191.074 149.642 191.407 148.612 192.072 147.892C192.737 147.171 193.68 146.811 194.9 146.811C196.065 146.811 196.955 147.199 197.571 147.974C198.186 148.744 198.493 149.875 198.493 151.365V151.425H193.287ZM196.453 150.105C196.413 149.449 196.255 148.959 195.98 148.634C195.705 148.304 195.335 148.139 194.87 148.139C194.375 148.139 193.992 148.312 193.722 148.657C193.457 149.002 193.317 149.484 193.302 150.105H196.453ZM203.955 154.958C203.444 155.128 202.852 155.213 202.177 155.213C201.557 155.213 201.079 155.046 200.744 154.711C200.409 154.371 200.241 153.858 200.241 153.173V148.387H199.213V146.961H200.346L201.006 145.056H202.327V146.961H203.865V148.387H202.327V152.603C202.327 152.998 202.402 153.29 202.552 153.48C202.702 153.665 202.934 153.758 203.249 153.758C203.399 153.758 203.634 153.723 203.955 153.653V154.958ZM207.293 148.582C207.578 147.962 207.936 147.511 208.366 147.231C208.796 146.951 209.308 146.811 209.903 146.811C210.764 146.811 211.424 147.076 211.884 147.606C212.344 148.137 212.574 148.912 212.574 149.932V155.078H210.474V150.532C210.474 149.817 210.354 149.282 210.114 148.927C209.873 148.572 209.511 148.394 209.026 148.394C208.516 148.394 208.103 148.614 207.788 149.054C207.478 149.489 207.323 150.05 207.323 150.735V155.078H205.215V143.946H207.323V146.984C207.323 147.164 207.32 147.344 207.315 147.524C207.31 147.704 207.303 147.882 207.293 148.057C207.288 148.232 207.278 148.407 207.263 148.582H207.293ZM216.347 151.425C216.347 152.215 216.493 152.813 216.783 153.218C217.078 153.618 217.495 153.818 218.035 153.818C218.405 153.818 218.708 153.738 218.943 153.578C219.183 153.413 219.351 153.17 219.446 152.85L221.434 153.023C220.859 154.493 219.691 155.228 217.93 155.228C216.71 155.228 215.772 154.868 215.117 154.148C214.462 153.423 214.134 152.368 214.134 150.982C214.134 149.642 214.467 148.612 215.132 147.892C215.797 147.171 216.74 146.811 217.96 146.811C219.126 146.811 220.016 147.199 220.631 147.974C221.246 148.744 221.554 149.875 221.554 151.365V151.425H216.347ZM219.513 150.105C219.473 149.449 219.316 148.959 219.041 148.634C218.766 148.304 218.395 148.139 217.93 148.139C217.435 148.139 217.053 148.312 216.783 148.657C216.518 149.002 216.378 149.484 216.363 150.105H219.513ZM225.267 151.095V155.078H223.159V148.867C223.159 148.422 223.152 148.052 223.137 147.757C223.127 147.456 223.114 147.191 223.099 146.961H225.11C225.12 147.006 225.13 147.106 225.14 147.261C225.15 147.416 225.16 147.591 225.17 147.787C225.18 147.977 225.187 148.157 225.192 148.327C225.202 148.497 225.207 148.619 225.207 148.694H225.237C225.437 148.134 225.62 147.732 225.785 147.486C225.945 147.251 226.135 147.079 226.355 146.969C226.575 146.859 226.85 146.804 227.18 146.804C227.45 146.804 227.668 146.841 227.833 146.916V148.679C227.498 148.604 227.198 148.567 226.933 148.567C226.407 148.567 225.997 148.779 225.702 149.204C225.412 149.629 225.267 150.26 225.267 151.095Z" fill="#111111"/>
<path d="M187.096 179.626C186.327 179.626 185.656 179.484 185.083 179.199C184.509 178.914 184.065 178.508 183.749 177.979C183.433 177.45 183.276 176.816 183.276 176.078V170.097H184.549V175.972C184.549 176.83 184.767 177.481 185.203 177.925C185.638 178.37 186.267 178.592 187.09 178.592C187.934 178.592 188.59 178.363 189.057 177.905C189.528 177.443 189.764 176.77 189.764 175.885V170.097H191.031V175.958C191.031 176.718 190.868 177.372 190.544 177.919C190.224 178.465 189.768 178.888 189.177 179.186C188.59 179.479 187.897 179.626 187.096 179.626ZM200.573 176.898C200.573 177.765 200.233 178.437 199.553 178.912C198.877 179.388 197.923 179.626 196.692 179.626C194.403 179.626 193.076 178.83 192.711 177.239L193.945 176.992C194.087 177.556 194.389 177.972 194.852 178.239C195.314 178.501 195.943 178.632 196.739 178.632C197.561 178.632 198.195 178.492 198.639 178.212C199.088 177.928 199.313 177.512 199.313 176.965C199.313 176.658 199.242 176.409 199.099 176.218C198.961 176.027 198.766 175.869 198.512 175.745C198.259 175.62 197.957 175.516 197.606 175.431C197.254 175.347 196.865 175.256 196.439 175.158C195.945 175.047 195.532 174.938 195.198 174.831C194.869 174.725 194.598 174.613 194.385 174.498C194.171 174.378 193.989 174.251 193.838 174.118C193.616 173.913 193.445 173.675 193.325 173.404C193.209 173.133 193.151 172.822 193.151 172.471C193.151 171.666 193.458 171.046 194.071 170.61C194.689 170.175 195.572 169.957 196.719 169.957C197.786 169.957 198.601 170.121 199.166 170.45C199.731 170.775 200.126 171.33 200.353 172.117L199.099 172.337C198.961 171.839 198.699 171.479 198.312 171.257C197.926 171.03 197.39 170.917 196.705 170.917C195.954 170.917 195.381 171.042 194.985 171.29C194.589 171.539 194.391 171.911 194.391 172.404C194.391 172.693 194.467 172.933 194.618 173.124C194.774 173.311 194.996 173.469 195.285 173.598C195.556 173.727 196.132 173.889 197.012 174.084C197.372 174.169 197.728 174.258 198.079 174.351C198.43 174.44 198.761 174.553 199.073 174.691C199.255 174.767 199.428 174.86 199.593 174.971C199.762 175.078 199.908 175.202 200.033 175.345C200.202 175.531 200.333 175.752 200.426 176.005C200.524 176.258 200.573 176.556 200.573 176.898ZM210.409 174.698C210.409 175.689 210.215 176.543 209.828 177.259C209.446 177.974 208.91 178.526 208.221 178.912C207.537 179.299 206.741 179.492 205.834 179.492H202.32V170.097H205.427C207.019 170.097 208.246 170.497 209.108 171.297C209.975 172.093 210.409 173.226 210.409 174.698ZM209.128 174.698C209.128 173.533 208.808 172.646 208.168 172.037C207.532 171.424 206.61 171.117 205.401 171.117H203.594V178.472H205.687C206.385 178.472 206.99 178.319 207.501 178.012C208.017 177.705 208.417 177.27 208.702 176.705C208.986 176.14 209.128 175.471 209.128 174.698ZM215.87 171.137V179.492H214.603V171.137H211.375V170.097H219.097V171.137H215.87Z" fill="#111111"/>
<path d="M396.637 157.202C396.827 157.202 396.922 157.107 396.922 156.917V155.435C396.922 155.245 396.827 155.15 396.637 155.15H391.241C392.457 154.01 393.464 152.946 394.072 152.243C395.687 150.419 396.713 149.032 396.713 147.246C396.713 144.7 394.851 143.389 392.457 143.389C390.367 143.389 389.037 144.434 388.163 145.384C388.049 145.517 388.049 145.65 388.144 145.764L389.037 146.98C389.151 147.132 389.303 147.132 389.417 146.999C390.139 146.258 391.07 145.479 392.457 145.479C393.901 145.479 394.452 146.372 394.452 147.284C394.452 148.614 393.293 149.906 391.83 151.426L387.973 155.435C387.878 155.53 387.84 155.625 387.84 155.777V156.917C387.84 157.107 387.935 157.202 388.106 157.202H396.637ZM407.591 152.87C407.591 150.362 405.634 148.975 403.62 149.032L403.601 148.994L407.04 145.346C407.116 145.251 407.173 145.137 407.173 145.004V143.902C407.173 143.712 407.078 143.617 406.907 143.617H399.155C398.984 143.617 398.889 143.712 398.889 143.902V145.384C398.889 145.574 398.984 145.669 399.155 145.669H404.304C403.943 145.954 403.05 146.885 402.689 147.265L400.827 149.298C400.713 149.431 400.694 149.564 400.751 149.697L401.112 150.476C401.188 150.609 401.302 150.685 401.454 150.647C401.891 150.552 402.366 150.514 402.651 150.514C404.38 150.514 405.33 151.293 405.33 152.813C405.33 154.466 404.304 155.34 402.86 155.34C401.321 155.34 400.485 154.827 399.554 154.162C399.421 154.048 399.269 154.048 399.155 154.162L398.224 155.245C398.11 155.378 398.11 155.511 398.224 155.644C399.383 156.651 400.732 157.43 402.86 157.43C405.577 157.43 407.591 155.701 407.591 152.87ZM414.171 148.139V145.992C414.171 144.244 412.898 143.522 411.587 143.522C410.295 143.522 409.022 144.244 409.022 145.992V148.139C409.022 149.868 410.333 150.628 411.587 150.628C412.879 150.628 414.171 149.868 414.171 148.139ZM411.929 157.202C412.081 157.202 412.195 157.164 412.271 157.031L420.631 144.073C420.764 143.902 420.669 143.731 420.46 143.731H419.073C418.94 143.731 418.826 143.769 418.731 143.921L410.371 156.86C410.257 157.05 410.333 157.202 410.561 157.202H411.929ZM410.618 148.025V146.144C410.618 145.27 411.131 144.985 411.587 144.985C412.062 144.985 412.575 145.27 412.575 146.144V148.025C412.575 148.88 412.062 149.165 411.587 149.165C411.131 149.165 410.618 148.88 410.618 148.025ZM422.075 154.884V152.737C422.075 151.008 420.821 150.267 419.51 150.267C418.218 150.267 416.945 151.008 416.945 152.737V154.884C416.945 156.613 418.237 157.373 419.51 157.373C420.783 157.373 422.075 156.613 422.075 154.884ZM418.522 154.77V152.889C418.522 152.034 419.035 151.749 419.51 151.749C419.966 151.749 420.498 152.034 420.498 152.889V154.77C420.498 155.625 419.966 155.91 419.51 155.91C419.035 155.91 418.522 155.625 418.522 154.77Z" fill="#111111"/>
<path d="M390.504 177.937C390.664 177.937 390.744 177.857 390.744 177.713V176.465C390.744 176.321 390.664 176.225 390.504 176.225H386.504C386.344 176.225 386.264 176.321 386.264 176.465V177.713C386.264 177.857 386.344 177.937 386.504 177.937H390.504ZM399.372 178.209C399.372 176.097 397.724 174.929 396.028 174.977L396.012 174.945L398.908 171.873C398.972 171.793 399.02 171.697 399.02 171.585V170.657C399.02 170.497 398.94 170.417 398.796 170.417H392.268C392.124 170.417 392.044 170.497 392.044 170.657V171.905C392.044 172.065 392.124 172.145 392.268 172.145H396.604C396.3 172.385 395.548 173.169 395.244 173.489L393.676 175.201C393.58 175.313 393.564 175.425 393.612 175.537L393.916 176.193C393.98 176.305 394.076 176.369 394.204 176.337C394.572 176.257 394.972 176.225 395.212 176.225C396.668 176.225 397.468 176.881 397.468 178.161C397.468 179.553 396.604 180.289 395.388 180.289C394.092 180.289 393.388 179.857 392.604 179.297C392.492 179.201 392.364 179.201 392.268 179.297L391.484 180.209C391.388 180.321 391.388 180.433 391.484 180.545C392.46 181.393 393.596 182.049 395.388 182.049C397.676 182.049 399.372 180.593 399.372 178.209ZM403.009 180.769C403.009 180.065 402.513 179.585 401.825 179.585C401.121 179.585 400.657 180.065 400.657 180.769C400.657 181.441 401.121 181.937 401.825 181.937C402.513 181.937 403.009 181.441 403.009 180.769ZM412.23 178.065C412.23 175.681 410.774 174.337 408.502 174.337C407.686 174.337 407.078 174.513 406.55 174.833L406.63 172.177H411.366C411.526 172.177 411.606 172.097 411.606 171.937V170.657C411.606 170.497 411.526 170.417 411.366 170.417H405.062C404.918 170.417 404.822 170.497 404.822 170.657L404.614 176.177C404.614 176.337 404.694 176.417 404.822 176.449L405.91 176.817C406.038 176.865 406.118 176.833 406.23 176.737C406.726 176.305 407.318 176.049 408.278 176.049C409.686 176.049 410.342 176.705 410.342 178.065C410.342 179.409 409.622 180.257 408.262 180.257C407.302 180.257 406.47 179.921 405.654 179.281C405.526 179.169 405.414 179.153 405.318 179.265L404.438 180.225C404.342 180.353 404.342 180.449 404.438 180.561C405.478 181.521 406.758 182.049 408.246 182.049C410.71 182.049 412.23 180.465 412.23 178.065ZM417.718 174.225V172.417C417.718 170.945 416.646 170.337 415.542 170.337C414.454 170.337 413.382 170.945 413.382 172.417V174.225C413.382 175.681 414.486 176.321 415.542 176.321C416.63 176.321 417.718 175.681 417.718 174.225ZM415.83 181.857C415.958 181.857 416.054 181.825 416.118 181.713L423.158 170.801C423.27 170.657 423.19 170.513 423.014 170.513H421.846C421.734 170.513 421.638 170.545 421.558 170.673L414.518 181.569C414.422 181.729 414.486 181.857 414.678 181.857H415.83ZM414.726 174.129V172.545C414.726 171.809 415.158 171.569 415.542 171.569C415.942 171.569 416.374 171.809 416.374 172.545V174.129C416.374 174.849 415.942 175.089 415.542 175.089C415.158 175.089 414.726 174.849 414.726 174.129ZM424.374 179.905V178.097C424.374 176.641 423.318 176.017 422.214 176.017C421.126 176.017 420.054 176.641 420.054 178.097V179.905C420.054 181.361 421.142 182.001 422.214 182.001C423.286 182.001 424.374 181.361 424.374 179.905ZM421.382 179.809V178.225C421.382 177.505 421.814 177.265 422.214 177.265C422.598 177.265 423.046 177.505 423.046 178.225V179.809C423.046 180.529 422.598 180.769 422.214 180.769C421.814 180.769 421.382 180.529 421.382 179.809Z" fill="#EB5B5B"/>
</g>
<g filter="url(#filter5_d_210_2465)">
<g filter="url(#filter6_d_210_2465)">
<rect x="116.494" y="208.23" width="40.9697" height="40.9697" rx="8.53535" fill="#FEFEFE"/>
</g>
<g opacity="0.8">
<path d="M137.404 218.899L137.274 219.342V232.21L137.404 232.34L143.377 228.81L137.404 218.899Z" fill="#5D32D9"/>
<path d="M137.404 218.899L131.431 228.81L137.404 232.34V226.095V218.899Z" fill="#5D32D9"/>
<path d="M137.404 234.283L137.331 234.373V238.957L137.404 239.172L143.381 230.755L137.404 234.283Z" fill="#5D32D9"/>
<path d="M137.404 239.172V234.283L131.431 230.755L137.404 239.172Z" fill="#5D32D9"/>
<path d="M137.404 232.34L143.377 228.81L137.404 226.095V232.34Z" fill="#5D32D9"/>
<path d="M131.431 228.81L137.404 232.34V226.095L131.431 228.81Z" fill="#5D32D9"/>
</g>
<path d="M191.864 220.797V222.508H183.244V211.938H191.556V213.648H185.457V216.304H191.099V218.014H185.457V220.797H191.864ZM197.393 222.388C196.883 222.558 196.29 222.643 195.615 222.643C194.995 222.643 194.517 222.475 194.182 222.14C193.847 221.8 193.679 221.287 193.679 220.602V215.816H192.652V214.391H193.784L194.444 212.485H195.765V214.391H197.303V215.816H195.765V220.032C195.765 220.427 195.84 220.72 195.99 220.91C196.14 221.095 196.372 221.187 196.687 221.187C196.838 221.187 197.073 221.152 197.393 221.082V222.388ZM200.731 216.011C201.016 215.391 201.374 214.941 201.804 214.661C202.234 214.381 202.746 214.241 203.342 214.241C204.202 214.241 204.862 214.506 205.322 215.036C205.782 215.566 206.012 216.341 206.012 217.361V222.508H203.912V217.961C203.912 217.246 203.792 216.711 203.552 216.356C203.312 216.001 202.949 215.823 202.464 215.823C201.954 215.823 201.541 216.044 201.226 216.484C200.916 216.919 200.761 217.479 200.761 218.164V222.508H198.653V211.375H200.761V214.413C200.761 214.593 200.758 214.773 200.753 214.953C200.748 215.133 200.741 215.311 200.731 215.486C200.726 215.661 200.716 215.836 200.701 216.011H200.731ZM209.786 218.854C209.786 219.644 209.931 220.242 210.221 220.647C210.516 221.047 210.933 221.247 211.473 221.247C211.844 221.247 212.146 221.167 212.381 221.007C212.621 220.842 212.789 220.6 212.884 220.28L214.872 220.452C214.297 221.922 213.129 222.658 211.368 222.658C210.148 222.658 209.21 222.297 208.555 221.577C207.9 220.852 207.573 219.797 207.573 218.412C207.573 217.071 207.905 216.041 208.57 215.321C209.235 214.601 210.178 214.241 211.398 214.241C212.564 214.241 213.454 214.628 214.069 215.403C214.684 216.174 214.992 217.304 214.992 218.794V218.854H209.786ZM212.951 217.534C212.911 216.879 212.754 216.389 212.479 216.064C212.204 215.733 211.834 215.568 211.368 215.568C210.873 215.568 210.491 215.741 210.221 216.086C209.956 216.431 209.816 216.914 209.801 217.534H212.951ZM218.705 218.524V222.508H216.597V216.296C216.597 215.851 216.59 215.481 216.575 215.186C216.565 214.886 216.552 214.621 216.537 214.391H218.548C218.558 214.436 218.568 214.536 218.578 214.691C218.588 214.846 218.598 215.021 218.608 215.216C218.618 215.406 218.625 215.586 218.63 215.756C218.64 215.926 218.645 216.049 218.645 216.124H218.675C218.875 215.563 219.058 215.161 219.223 214.916C219.383 214.681 219.573 214.508 219.793 214.398C220.013 214.288 220.288 214.233 220.618 214.233C220.888 214.233 221.106 214.271 221.271 214.346V216.109C220.936 216.034 220.636 215.996 220.371 215.996C219.845 215.996 219.435 216.209 219.14 216.634C218.85 217.059 218.705 217.689 218.705 218.524ZM224.324 218.854C224.324 219.644 224.469 220.242 224.759 220.647C225.054 221.047 225.472 221.247 226.012 221.247C226.382 221.247 226.685 221.167 226.92 221.007C227.16 220.842 227.327 220.6 227.422 220.28L229.41 220.452C228.835 221.922 227.667 222.658 225.907 222.658C224.687 222.658 223.749 222.297 223.094 221.577C222.439 220.852 222.111 219.797 222.111 218.412C222.111 217.071 222.444 216.041 223.109 215.321C223.774 214.601 224.717 214.241 225.937 214.241C227.102 214.241 227.992 214.628 228.608 215.403C229.223 216.174 229.53 217.304 229.53 218.794V218.854H224.324ZM227.49 217.534C227.45 216.879 227.292 216.389 227.017 216.064C226.742 215.733 226.372 215.568 225.907 215.568C225.412 215.568 225.029 215.741 224.759 216.086C224.494 216.431 224.354 216.914 224.339 217.534H227.49ZM236.297 220.895C236.017 221.51 235.659 221.957 235.224 222.237C234.794 222.518 234.281 222.658 233.686 222.658C232.826 222.658 232.166 222.395 231.706 221.87C231.246 221.34 231.016 220.565 231.016 219.544V214.391H233.124V218.944C233.124 219.654 233.244 220.189 233.484 220.55C233.724 220.905 234.084 221.082 234.564 221.082C235.074 221.082 235.484 220.865 235.794 220.43C236.109 219.989 236.267 219.427 236.267 218.742V214.391H238.375V220.692C238.375 221.037 238.38 221.362 238.39 221.667C238.4 221.967 238.415 222.247 238.435 222.508H236.424C236.394 222.147 236.372 221.832 236.357 221.562C236.342 221.292 236.334 221.07 236.334 220.895H236.297ZM242.636 218.157V222.508H240.528V216.206C240.528 215.771 240.52 215.416 240.505 215.141C240.495 214.861 240.483 214.611 240.468 214.391H242.478C242.488 214.451 242.501 214.593 242.516 214.818C242.531 215.038 242.543 215.266 242.553 215.501C242.568 215.731 242.576 215.898 242.576 216.003H242.606C242.866 215.383 243.188 214.933 243.574 214.653C243.964 214.373 244.429 214.233 244.969 214.233C245.589 214.233 246.087 214.381 246.462 214.676C246.842 214.971 247.097 215.413 247.227 216.003H247.272C247.547 215.373 247.877 214.921 248.262 214.646C248.647 214.371 249.137 214.233 249.733 214.233C250.523 214.233 251.125 214.503 251.54 215.043C251.956 215.578 252.163 216.349 252.163 217.354V222.508H250.07V217.954C250.07 217.239 249.968 216.704 249.763 216.349C249.557 215.993 249.25 215.816 248.84 215.816C248.43 215.816 248.087 216.016 247.812 216.416C247.537 216.811 247.399 217.359 247.399 218.059V222.508H245.306V217.954C245.306 217.239 245.204 216.704 244.999 216.349C244.794 215.993 244.486 215.816 244.076 215.816C243.651 215.816 243.304 216.034 243.033 216.469C242.768 216.904 242.636 217.466 242.636 218.157Z" fill="#111111"/>
<path d="M190.739 245.881V246.922H183.337V237.526H190.465V238.566H184.61V241.58H190.065V242.607H184.61V245.881H190.739ZM196.127 238.566V246.922H194.86V238.566H191.632V237.526H199.354V238.566H196.127ZM202.068 242.567V246.922H200.794V237.526H202.068V241.5H207.149V237.526H208.423V246.922H207.149V242.567H202.068Z" fill="#111111"/>
<path d="M397.575 224.632C397.765 224.632 397.86 224.537 397.86 224.347V222.865C397.86 222.675 397.765 222.58 397.575 222.58H392.179C393.395 221.44 394.402 220.376 395.01 219.673C396.625 217.849 397.651 216.462 397.651 214.676C397.651 212.13 395.789 210.819 393.395 210.819C391.305 210.819 389.975 211.864 389.101 212.814C388.987 212.947 388.987 213.08 389.082 213.194L389.975 214.41C390.089 214.562 390.241 214.562 390.355 214.429C391.077 213.688 392.008 212.909 393.395 212.909C394.839 212.909 395.39 213.802 395.39 214.714C395.39 216.044 394.231 217.336 392.768 218.856L388.911 222.865C388.816 222.96 388.778 223.055 388.778 223.207V224.347C388.778 224.537 388.873 224.632 389.044 224.632H397.575ZM409.08 220.205V215.398C409.08 212.13 406.705 210.819 404.406 210.819C402.107 210.819 399.713 212.13 399.713 215.398V220.205C399.713 223.53 402.107 224.86 404.406 224.86C406.705 224.86 409.08 223.53 409.08 220.205ZM401.936 220.281V215.436C401.936 213.479 403.266 212.966 404.406 212.966C405.546 212.966 406.857 213.479 406.857 215.436V220.281C406.857 222.2 405.546 222.713 404.406 222.713C403.266 222.713 401.936 222.2 401.936 220.281ZM415.982 215.569V213.422C415.982 211.674 414.709 210.952 413.398 210.952C412.106 210.952 410.833 211.674 410.833 213.422V215.569C410.833 217.298 412.144 218.058 413.398 218.058C414.69 218.058 415.982 217.298 415.982 215.569ZM413.74 224.632C413.892 224.632 414.006 224.594 414.082 224.461L422.442 211.503C422.575 211.332 422.48 211.161 422.271 211.161H420.884C420.751 211.161 420.637 211.199 420.542 211.351L412.182 224.29C412.068 224.48 412.144 224.632 412.372 224.632H413.74ZM412.429 215.455V213.574C412.429 212.7 412.942 212.415 413.398 212.415C413.873 212.415 414.386 212.7 414.386 213.574V215.455C414.386 216.31 413.873 216.595 413.398 216.595C412.942 216.595 412.429 216.31 412.429 215.455ZM423.886 222.314V220.167C423.886 218.438 422.632 217.697 421.321 217.697C420.029 217.697 418.756 218.438 418.756 220.167V222.314C418.756 224.043 420.048 224.803 421.321 224.803C422.594 224.803 423.886 224.043 423.886 222.314ZM420.333 222.2V220.319C420.333 219.464 420.846 219.179 421.321 219.179C421.777 219.179 422.309 219.464 422.309 220.319V222.2C422.309 223.055 421.777 223.34 421.321 223.34C420.846 223.34 420.333 223.055 420.333 222.2Z" fill="#111111"/>
<path d="M393.307 245.366C393.467 245.366 393.547 245.286 393.547 245.142V243.894C393.547 243.75 393.467 243.654 393.307 243.654H389.307C389.147 243.654 389.067 243.75 389.067 243.894V245.142C389.067 245.286 389.147 245.366 389.307 245.366H393.307ZM398.225 249.286C398.369 249.286 398.449 249.206 398.449 249.046V238.086C398.449 237.926 398.369 237.846 398.225 237.846H396.993C396.881 237.846 396.785 237.862 396.705 237.926L393.969 239.782C393.857 239.878 393.825 240.006 393.905 240.118L394.561 241.174C394.657 241.318 394.769 241.334 394.881 241.254L396.577 240.086V249.046C396.577 249.206 396.657 249.286 396.817 249.286H398.225ZM402.671 248.198C402.671 247.494 402.175 247.014 401.487 247.014C400.783 247.014 400.319 247.494 400.319 248.198C400.319 248.87 400.783 249.366 401.487 249.366C402.175 249.366 402.671 248.87 402.671 248.198ZM411.892 245.494C411.892 243.11 410.436 241.766 408.164 241.766C407.348 241.766 406.74 241.942 406.212 242.262L406.292 239.606H411.028C411.188 239.606 411.268 239.526 411.268 239.366V238.086C411.268 237.926 411.188 237.846 411.028 237.846H404.724C404.58 237.846 404.484 237.926 404.484 238.086L404.276 243.606C404.276 243.766 404.356 243.846 404.484 243.878L405.572 244.246C405.7 244.294 405.78 244.262 405.892 244.166C406.388 243.734 406.98 243.478 407.94 243.478C409.348 243.478 410.004 244.134 410.004 245.494C410.004 246.838 409.284 247.686 407.924 247.686C406.964 247.686 406.132 247.35 405.316 246.71C405.188 246.598 405.076 246.582 404.98 246.694L404.1 247.654C404.004 247.782 404.004 247.878 404.1 247.99C405.14 248.95 406.42 249.478 407.908 249.478C410.372 249.478 411.892 247.894 411.892 245.494ZM417.38 241.654V239.846C417.38 238.374 416.308 237.766 415.204 237.766C414.116 237.766 413.044 238.374 413.044 239.846V241.654C413.044 243.11 414.148 243.75 415.204 243.75C416.292 243.75 417.38 243.11 417.38 241.654ZM415.492 249.286C415.62 249.286 415.716 249.254 415.78 249.142L422.82 238.23C422.932 238.086 422.852 237.942 422.676 237.942H421.508C421.396 237.942 421.3 237.974 421.22 238.102L414.18 248.998C414.084 249.158 414.148 249.286 414.34 249.286H415.492ZM414.388 241.558V239.974C414.388 239.238 414.82 238.998 415.204 238.998C415.604 238.998 416.036 239.238 416.036 239.974V241.558C416.036 242.278 415.604 242.518 415.204 242.518C414.82 242.518 414.388 242.278 414.388 241.558ZM424.036 247.334V245.526C424.036 244.07 422.98 243.446 421.876 243.446C420.788 243.446 419.716 244.07 419.716 245.526V247.334C419.716 248.79 420.804 249.43 421.876 249.43C422.948 249.43 424.036 248.79 424.036 247.334ZM421.044 247.238V245.654C421.044 244.934 421.476 244.694 421.876 244.694C422.26 244.694 422.708 244.934 422.708 245.654V247.238C422.708 247.958 422.26 248.198 421.876 248.198C421.476 248.198 421.044 247.958 421.044 247.238Z" fill="#EB5B5B"/>
</g>
<g filter="url(#filter7_d_210_2465)">
<g filter="url(#filter8_d_210_2465)">
<rect x="116.972" y="275.659" width="40.9697" height="40.9697" rx="8.53535" fill="#FEFEFE"/>
</g>
<path d="M139.366 289.298C138.336 289.885 137.725 290.944 137.725 292.062C137.725 292.648 137.969 293.24 138.273 293.767C138.516 294.238 138.635 295.061 137.787 295.473C137.181 295.824 136.389 295.59 136.027 295.002C135.664 294.53 135.239 294.059 134.691 293.708C133.661 293.121 132.445 293.121 131.414 293.708C130.383 294.295 129.775 295.357 129.775 296.475C129.775 297.592 130.38 298.651 131.414 299.24C132.445 299.827 133.66 299.827 134.691 299.24C135.239 298.945 135.664 298.477 135.965 297.946C136.208 297.534 136.877 297.004 137.725 297.475C138.331 297.826 138.513 298.594 138.212 299.18C137.907 299.711 137.725 300.299 137.725 300.886C137.725 302.005 138.331 303.063 139.366 303.65C140.397 304.237 141.613 304.237 142.644 303.65C143.674 303.063 144.285 302.003 144.285 300.886C144.285 299.769 143.678 298.709 142.644 298.121C142.096 297.826 141.489 297.709 140.822 297.709C140.275 297.709 139.548 297.358 139.548 296.475C139.548 295.768 140.096 295.24 140.822 295.24C141.428 295.24 142.096 295.123 142.644 294.828C143.674 294.241 144.285 293.182 144.285 292.065C144.285 290.947 143.678 289.888 142.644 289.301C142.157 289.006 141.552 288.889 141.005 288.889C140.46 288.886 139.85 289.006 139.367 289.298" fill="#1276A7"/>
<path d="M185.935 285.923V289.937H183.722V279.367H189.003C190.263 279.367 191.236 279.639 191.921 280.185C192.606 280.725 192.949 281.502 192.949 282.518C192.949 283.258 192.739 283.898 192.319 284.438C191.899 284.973 191.331 285.326 190.616 285.496L193.474 289.937H190.983L188.53 285.923H185.935ZM190.721 282.608C190.721 282.102 190.558 281.722 190.233 281.467C189.908 281.212 189.42 281.085 188.77 281.085H185.935V284.205H188.83C189.45 284.205 189.921 284.065 190.241 283.785C190.561 283.505 190.721 283.113 190.721 282.608ZM196.977 278.804V280.357H194.869V278.804H196.977ZM196.977 281.82V289.937H194.869V281.82H196.977ZM206.827 285.841C206.827 287.196 206.554 288.244 206.009 288.984C205.469 289.719 204.704 290.087 203.714 290.087C202.539 290.087 201.718 289.607 201.253 288.647H201.208C201.238 288.797 201.253 289.252 201.253 290.012V293.125H199.145V283.688C199.145 283.303 199.14 282.955 199.13 282.645C199.12 282.335 199.105 282.06 199.085 281.82H201.133C201.153 281.88 201.168 281.982 201.178 282.127C201.193 282.268 201.203 282.428 201.208 282.608C201.218 282.788 201.223 282.965 201.223 283.14H201.253C201.488 282.64 201.823 282.268 202.258 282.022C202.694 281.772 203.224 281.647 203.849 281.647C204.794 281.647 205.527 282.012 206.047 282.743C206.567 283.468 206.827 284.501 206.827 285.841ZM204.629 285.841C204.629 284.931 204.489 284.248 204.209 283.793C203.934 283.338 203.516 283.11 202.956 283.11C202.396 283.11 201.966 283.355 201.666 283.845C201.371 284.336 201.223 285.021 201.223 285.901C201.223 286.776 201.371 287.454 201.666 287.934C201.966 288.409 202.391 288.647 202.941 288.647C203.506 288.647 203.929 288.414 204.209 287.949C204.489 287.479 204.629 286.776 204.629 285.841ZM216.219 285.841C216.219 287.196 215.947 288.244 215.402 288.984C214.861 289.719 214.096 290.087 213.106 290.087C211.931 290.087 211.111 289.607 210.645 288.647H210.6C210.63 288.797 210.645 289.252 210.645 290.012V293.125H208.537V283.688C208.537 283.303 208.532 282.955 208.522 282.645C208.512 282.335 208.497 282.06 208.477 281.82H210.525C210.545 281.88 210.56 281.982 210.57 282.127C210.585 282.268 210.595 282.428 210.6 282.608C210.61 282.788 210.615 282.965 210.615 283.14H210.645C210.881 282.64 211.216 282.268 211.651 282.022C212.086 281.772 212.616 281.647 213.241 281.647C214.186 281.647 214.919 282.012 215.439 282.743C215.959 283.468 216.219 284.501 216.219 285.841ZM214.021 285.841C214.021 284.931 213.881 284.248 213.601 283.793C213.326 283.338 212.908 283.11 212.348 283.11C211.788 283.11 211.358 283.355 211.058 283.845C210.763 284.336 210.615 285.021 210.615 285.901C210.615 286.776 210.763 287.454 211.058 287.934C211.358 288.409 211.783 288.647 212.333 288.647C212.898 288.647 213.321 288.414 213.601 287.949C213.881 287.479 214.021 286.776 214.021 285.841ZM220.038 278.804V289.937H217.93V278.804H220.038ZM223.946 286.283C223.946 287.074 224.091 287.671 224.381 288.076C224.676 288.476 225.094 288.677 225.634 288.677C226.004 288.677 226.307 288.597 226.542 288.436C226.782 288.271 226.949 288.029 227.044 287.709L229.032 287.881C228.457 289.352 227.289 290.087 225.529 290.087C224.309 290.087 223.371 289.727 222.716 289.007C222.061 288.281 221.733 287.226 221.733 285.841C221.733 284.501 222.066 283.47 222.731 282.75C223.396 282.03 224.339 281.67 225.559 281.67C226.724 281.67 227.614 282.057 228.23 282.833C228.845 283.603 229.152 284.733 229.152 286.223V286.283H223.946ZM227.112 284.963C227.072 284.308 226.914 283.818 226.639 283.493C226.364 283.163 225.994 282.998 225.529 282.998C225.034 282.998 224.651 283.17 224.381 283.515C224.116 283.86 223.976 284.343 223.961 284.963H227.112Z" fill="#111111"/>
<path d="M187.288 310.243L184.408 314.351H183.001L186.575 309.47L183.274 304.955H184.681L187.295 308.643L189.836 304.955H191.243L188.028 309.423L191.516 314.351H190.109L187.288 310.243ZM198.944 313.311V314.351H192.923V304.955H194.197V313.311H198.944ZM201.832 311.604L200.751 314.351H199.431L203.265 304.955H204.712L208.487 314.351H207.186L206.113 311.604H201.832ZM203.972 305.916C203.897 306.165 203.806 306.442 203.699 306.749C203.597 307.051 203.501 307.318 203.412 307.549L202.218 310.61H205.733L204.526 307.509C204.463 307.354 204.381 307.134 204.279 306.849C204.177 306.565 204.074 306.254 203.972 305.916Z" fill="#111111"/>
<path d="M395.325 292.061C395.496 292.061 395.591 291.966 395.591 291.776V278.761C395.591 278.571 395.496 278.476 395.325 278.476H393.862C393.729 278.476 393.615 278.495 393.52 278.571L390.271 280.775C390.138 280.889 390.1 281.041 390.195 281.174L390.974 282.428C391.088 282.599 391.221 282.618 391.354 282.523L393.368 281.136V291.776C393.368 291.966 393.463 292.061 393.653 292.061H395.325ZM400.719 292.061C400.871 292.061 400.985 292.004 401.042 291.852L406.609 280.11C406.666 279.996 406.704 279.901 406.704 279.768V278.761C406.704 278.571 406.59 278.476 406.419 278.476H397.717C397.527 278.476 397.432 278.571 397.432 278.761V280.338C397.432 280.528 397.527 280.623 397.717 280.623H403.854L398.591 291.719C398.496 291.909 398.591 292.061 398.781 292.061H400.719ZM412.825 282.998V280.851C412.825 279.103 411.552 278.381 410.241 278.381C408.949 278.381 407.676 279.103 407.676 280.851V282.998C407.676 284.727 408.987 285.487 410.241 285.487C411.533 285.487 412.825 284.727 412.825 282.998ZM410.583 292.061C410.735 292.061 410.849 292.023 410.925 291.89L419.285 278.932C419.418 278.761 419.323 278.59 419.114 278.59H417.727C417.594 278.59 417.48 278.628 417.385 278.78L409.025 291.719C408.911 291.909 408.987 292.061 409.215 292.061H410.583ZM409.272 282.884V281.003C409.272 280.129 409.785 279.844 410.241 279.844C410.716 279.844 411.229 280.129 411.229 281.003V282.884C411.229 283.739 410.716 284.024 410.241 284.024C409.785 284.024 409.272 283.739 409.272 282.884ZM420.729 289.743V287.596C420.729 285.867 419.475 285.126 418.164 285.126C416.872 285.126 415.599 285.867 415.599 287.596V289.743C415.599 291.472 416.891 292.232 418.164 292.232C419.437 292.232 420.729 291.472 420.729 289.743ZM417.176 289.629V287.748C417.176 286.893 417.689 286.608 418.164 286.608C418.62 286.608 419.152 286.893 419.152 287.748V289.629C419.152 290.484 418.62 290.769 418.164 290.769C417.689 290.769 417.176 290.484 417.176 289.629Z" fill="#111111"/>
<path d="M392.83 312.796C392.99 312.796 393.07 312.716 393.07 312.572V311.324C393.07 311.18 392.99 311.084 392.83 311.084H388.83C388.67 311.084 388.59 311.18 388.59 311.324V312.572C388.59 312.716 388.67 312.796 388.83 312.796H392.83ZM397.748 316.716C397.892 316.716 397.972 316.636 397.972 316.476V305.516C397.972 305.356 397.892 305.276 397.748 305.276H396.516C396.404 305.276 396.308 305.292 396.228 305.356L393.492 307.212C393.38 307.308 393.348 307.436 393.428 307.548L394.084 308.604C394.18 308.748 394.292 308.764 394.404 308.684L396.1 307.516V316.476C396.1 316.636 396.18 316.716 396.34 316.716H397.748ZM402.194 315.628C402.194 314.924 401.698 314.444 401.01 314.444C400.306 314.444 399.842 314.924 399.842 315.628C399.842 316.3 400.306 316.796 401.01 316.796C401.698 316.796 402.194 316.3 402.194 315.628ZM411.415 312.924C411.415 310.54 409.959 309.196 407.687 309.196C406.871 309.196 406.263 309.372 405.735 309.692L405.815 307.036H410.551C410.711 307.036 410.791 306.956 410.791 306.796V305.516C410.791 305.356 410.711 305.276 410.551 305.276H404.247C404.103 305.276 404.007 305.356 404.007 305.516L403.799 311.036C403.799 311.196 403.879 311.276 404.007 311.308L405.095 311.676C405.223 311.724 405.303 311.692 405.415 311.596C405.911 311.164 406.503 310.908 407.463 310.908C408.871 310.908 409.527 311.564 409.527 312.924C409.527 314.268 408.807 315.116 407.447 315.116C406.487 315.116 405.655 314.78 404.839 314.14C404.711 314.028 404.599 314.012 404.503 314.124L403.623 315.084C403.527 315.212 403.527 315.308 403.623 315.42C404.663 316.38 405.943 316.908 407.431 316.908C409.895 316.908 411.415 315.324 411.415 312.924ZM416.903 309.084V307.276C416.903 305.804 415.831 305.196 414.727 305.196C413.639 305.196 412.567 305.804 412.567 307.276V309.084C412.567 310.54 413.671 311.18 414.727 311.18C415.815 311.18 416.903 310.54 416.903 309.084ZM415.015 316.716C415.143 316.716 415.239 316.684 415.303 316.572L422.343 305.66C422.455 305.516 422.375 305.372 422.199 305.372H421.031C420.919 305.372 420.823 305.404 420.743 305.532L413.703 316.428C413.607 316.588 413.671 316.716 413.863 316.716H415.015ZM413.911 308.988V307.404C413.911 306.668 414.343 306.428 414.727 306.428C415.127 306.428 415.559 306.668 415.559 307.404V308.988C415.559 309.708 415.127 309.948 414.727 309.948C414.343 309.948 413.911 309.708 413.911 308.988ZM423.559 314.764V312.956C423.559 311.5 422.503 310.876 421.399 310.876C420.311 310.876 419.239 311.5 419.239 312.956V314.764C419.239 316.22 420.327 316.86 421.399 316.86C422.471 316.86 423.559 316.22 423.559 314.764ZM420.567 314.668V313.084C420.567 312.364 420.999 312.124 421.399 312.124C421.783 312.124 422.231 312.364 422.231 313.084V314.668C422.231 315.388 421.783 315.628 421.399 315.628C420.999 315.628 420.567 315.388 420.567 314.668Z" fill="#5CD124"/>
</g>
</g>
<defs>
<filter id="filter0_d_210_2465" x="0.24242" y="0.393938" width="539.434" height="423.354" filterUnits="userSpaceOnUse" color-interpolation-filters="sRGB">
<feFlood flood-opacity="0" result="BackgroundImageFix"/>
<feColorMatrix in="SourceAlpha" type="matrix" values="0 0 0 0 0 0 0 0 0 0 0 0 0 0 0 0 0 0 127 0" result="hardAlpha"/>
<feOffset dy="17.0707"/>
<feGaussianBlur stdDeviation="21.3384"/>
<feComposite in2="hardAlpha" operator="out"/>
<feColorMatrix type="matrix" values="0 0 0 0 0 0 0 0 0 0 0 0 0 0 0 0 0 0 0.07 0"/>
<feBlend mode="normal" in2="BackgroundImageFix" result="effect1_dropShadow_210_2465"/>
<feBlend mode="normal" in="SourceGraphic" in2="effect1_dropShadow_210_2465" result="shape"/>
</filter>
<filter id="filter1_d_210_2465" x="0.24242" y="39.6566" width="538.581" height="142.54" filterUnits="userSpaceOnUse" color-interpolation-filters="sRGB">
<feFlood flood-opacity="0" result="BackgroundImageFix"/>
<feColorMatrix in="SourceAlpha" type="matrix" values="0 0 0 0 0 0 0 0 0 0 0 0 0 0 0 0 0 0 127 0" result="hardAlpha"/>
<feOffset dy="17.0707"/>
<feGaussianBlur stdDeviation="21.3384"/>
<feComposite in2="hardAlpha" operator="out"/>
<feColorMatrix type="matrix" values="0 0 0 0 0 0 0 0 0 0 0 0 0 0 0 0 0 0 0.07 0"/>
<feBlend mode="normal" in2="BackgroundImageFix" result="effect1_dropShadow_210_2465"/>
<feBlend mode="normal" in="SourceGraphic" in2="effect1_dropShadow_210_2465" result="shape"/>
</filter>
<filter id="filter2_d_210_2465" x="73.1528" y="47.7652" width="126.323" height="126.323" filterUnits="userSpaceOnUse" color-interpolation-filters="sRGB">
<feFlood flood-opacity="0" result="BackgroundImageFix"/>
<feColorMatrix in="SourceAlpha" type="matrix" values="0 0 0 0 0 0 0 0 0 0 0 0 0 0 0 0 0 0 127 0" result="hardAlpha"/>
<feOffset dy="17.0707"/>
<feGaussianBlur stdDeviation="21.3384"/>
<feComposite in2="hardAlpha" operator="out"/>
<feColorMatrix type="matrix" values="0 0 0 0 0 0 0 0 0 0 0 0 0 0 0 0 0 0 0.07 0"/>
<feBlend mode="normal" in2="BackgroundImageFix" result="effect1_dropShadow_210_2465"/>
<feBlend mode="normal" in="SourceGraphic" in2="effect1_dropShadow_210_2465" result="shape"/>
</filter>
<filter id="filter3_d_210_2465" x="0.24242" y="107.086" width="538.581" height="142.54" filterUnits="userSpaceOnUse" color-interpolation-filters="sRGB">
<feFlood flood-opacity="0" result="BackgroundImageFix"/>
<feColorMatrix in="SourceAlpha" type="matrix" values="0 0 0 0 0 0 0 0 0 0 0 0 0 0 0 0 0 0 127 0" result="hardAlpha"/>
<feOffset dy="17.0707"/>
<feGaussianBlur stdDeviation="21.3384"/>
<feComposite in2="hardAlpha" operator="out"/>
<feColorMatrix type="matrix" values="0 0 0 0 0 0 0 0 0 0 0 0 0 0 0 0 0 0 0.07 0"/>
<feBlend mode="normal" in2="BackgroundImageFix" result="effect1_dropShadow_210_2465"/>
<feBlend mode="normal" in="SourceGraphic" in2="effect1_dropShadow_210_2465" result="shape"/>
</filter>
<filter id="filter4_d_210_2465" x="73.823" y="115.194" width="126.323" height="126.323" filterUnits="userSpaceOnUse" color-interpolation-filters="sRGB">
<feFlood flood-opacity="0" result="BackgroundImageFix"/>
<feColorMatrix in="SourceAlpha" type="matrix" values="0 0 0 0 0 0 0 0 0 0 0 0 0 0 0 0 0 0 127 0" result="hardAlpha"/>
<feOffset dy="17.0707"/>
<feGaussianBlur stdDeviation="21.3384"/>
<feComposite in2="hardAlpha" operator="out"/>
<feColorMatrix type="matrix" values="0 0 0 0 0 0 0 0 0 0 0 0 0 0 0 0 0 0 0.07 0"/>
<feBlend mode="normal" in2="BackgroundImageFix" result="effect1_dropShadow_210_2465"/>
<feBlend mode="normal" in="SourceGraphic" in2="effect1_dropShadow_210_2465" result="shape"/>
</filter>
<filter id="filter5_d_210_2465" x="0.24242" y="174.515" width="538.581" height="142.54" filterUnits="userSpaceOnUse" color-interpolation-filters="sRGB">
<feFlood flood-opacity="0" result="BackgroundImageFix"/>
<feColorMatrix in="SourceAlpha" type="matrix" values="0 0 0 0 0 0 0 0 0 0 0 0 0 0 0 0 0 0 127 0" result="hardAlpha"/>
<feOffset dy="17.0707"/>
<feGaussianBlur stdDeviation="21.3384"/>
<feComposite in2="hardAlpha" operator="out"/>
<feColorMatrix type="matrix" values="0 0 0 0 0 0 0 0 0 0 0 0 0 0 0 0 0 0 0.07 0"/>
<feBlend mode="normal" in2="BackgroundImageFix" result="effect1_dropShadow_210_2465"/>
<feBlend mode="normal" in="SourceGraphic" in2="effect1_dropShadow_210_2465" result="shape"/>
</filter>
<filter id="filter6_d_210_2465" x="73.8176" y="182.624" width="126.323" height="126.323" filterUnits="userSpaceOnUse" color-interpolation-filters="sRGB">
<feFlood flood-opacity="0" result="BackgroundImageFix"/>
<feColorMatrix in="SourceAlpha" type="matrix" values="0 0 0 0 0 0 0 0 0 0 0 0 0 0 0 0 0 0 127 0" result="hardAlpha"/>
<feOffset dy="17.0707"/>
<feGaussianBlur stdDeviation="21.3384"/>
<feComposite in2="hardAlpha" operator="out"/>
<feColorMatrix type="matrix" values="0 0 0 0 0 0 0 0 0 0 0 0 0 0 0 0 0 0 0.07 0"/>
<feBlend mode="normal" in2="BackgroundImageFix" result="effect1_dropShadow_210_2465"/>
<feBlend mode="normal" in="SourceGraphic" in2="effect1_dropShadow_210_2465" result="shape"/>
</filter>
<filter id="filter7_d_210_2465" x="0.24242" y="241.944" width="538.581" height="142.54" filterUnits="userSpaceOnUse" color-interpolation-filters="sRGB">
<feFlood flood-opacity="0" result="BackgroundImageFix"/>
<feColorMatrix in="SourceAlpha" type="matrix" values="0 0 0 0 0 0 0 0 0 0 0 0 0 0 0 0 0 0 127 0" result="hardAlpha"/>
<feOffset dy="17.0707"/>
<feGaussianBlur stdDeviation="21.3384"/>
<feComposite in2="hardAlpha" operator="out"/>
<feColorMatrix type="matrix" values="0 0 0 0 0 0 0 0 0 0 0 0 0 0 0 0 0 0 0.07 0"/>
<feBlend mode="normal" in2="BackgroundImageFix" result="effect1_dropShadow_210_2465"/>
<feBlend mode="normal" in="SourceGraphic" in2="effect1_dropShadow_210_2465" result="shape"/>
</filter>
<filter id="filter8_d_210_2465" x="74.2949" y="250.053" width="126.323" height="126.323" filterUnits="userSpaceOnUse" color-interpolation-filters="sRGB">
<feFlood flood-opacity="0" result="BackgroundImageFix"/>
<feColorMatrix in="SourceAlpha" type="matrix" values="0 0 0 0 0 0 0 0 0 0 0 0 0 0 0 0 0 0 127 0" result="hardAlpha"/>
<feOffset dy="17.0707"/>
<feGaussianBlur stdDeviation="21.3384"/>
<feComposite in2="hardAlpha" operator="out"/>
<feColorMatrix type="matrix" values="0 0 0 0 0 0 0 0 0 0 0 0 0 0 0 0 0 0 0.07 0"/>
<feBlend mode="normal" in2="BackgroundImageFix" result="effect1_dropShadow_210_2465"/>
<feBlend mode="normal" in="SourceGraphic" in2="effect1_dropShadow_210_2465" result="shape"/>
</filter>
</defs>
</svg>
